<?xml version="1.0" encoding="UTF-8"?>
<svg id="Calque_1" data-name="Calque 1" xmlns="http://www.w3.org/2000/svg" viewBox="0 0 800 800">
  <defs>
    <style>
      .cls-1 {
        fill: #f3edf7;
      }

      .cls-1, .cls-2, .cls-3 {
        stroke-width: 0px;
      }

      .cls-2 {
        fill: #ffd104;
      }

      .cls-3 {
        fill: #f39207;
      }
    </style>
  </defs>
  <path class="cls-1" d="M452.4,628.61c-.37.34.15-2.02,1.52-7.09,1.38-5.07,2.53-11.82,3.47-20.25.93-8.41.48-17.23-1.38-26.44l-60.72-284.8c-5.64-24.8-10.19-44.47-13.67-59.01-3.46-14.52-7.42-24.15-11.87-28.85-9.54-11.53-20.98-17.83-34.33-18.92-13.34-1.08-26.35,4.37-39.01,16.34l-183.37,173.4c-10.85,10.26-17.06,21.63-18.64,34.08-1.58,12.46,2.73,24.81,12.96,37.07,9.56,10.84,20.66,16.95,33.29,18.36,12.64,1.4,23.47-2.17,32.52-10.71l131.29-124.17c.72-.67-.06,2.48-2.38,9.45-2.31,6.99-1.1,20.23,3.64,39.72,11.9,53.15,21.81,98.58,29.74,136.31,7.92,37.71,14.44,69.24,19.54,94.56,5.11,25.32,9.45,46.04,13.06,62.16,3.59,16.13,6.84,29.33,9.73,39.62,3.03,10.06,5.65,18.02,7.85,23.89.78-.43,1.55-.88,2.31-1.34,1.27-.73,2.5-1.48,3.74-2.23,1.23-.75,2.47-1.5,3.71-2.27,12.15-7.53,23.82-15.72,34.97-24.52,1.02-.81,2.05-1.63,3.06-2.43,1.2-.97,2.4-1.94,3.59-2.93,1.06-.86,2.09-1.75,3.12-2.61.83-.71,1.66-1.4,2.49-2.11,1.29-1.11,2.59-2.25,3.87-3.39.98-.87,1.97-1.74,2.95-2.63.72-.64,1.45-1.28,2.14-1.94.67-.62,1.34-1.22,2-1.84.86-.78,1.69-1.58,2.54-2.39.92-.85,1.81-1.71,2.71-2.57.83-.8,1.67-1.61,2.51-2.43.69-.69,1.4-1.37,2.09-2.08.72-.71,1.44-1.42,2.16-2.16.37-.37.74-.76,1.1-1.14.78-.78,1.55-1.57,2.3-2.35.05-.04.08-.1.11-.14.82-.85,1.62-1.7,2.44-2.56,1.16-1.22,2.3-2.44,3.42-3.66.9-.97,1.81-1.95,2.68-2.94.15-.17.29-.33.45-.49.63-.71,1.27-1.43,1.9-2.15,1.32-1.46,2.62-2.97,3.9-4.47.8-.93,1.59-1.86,2.37-2.8.71-.84,1.41-1.68,2.12-2.54,1.12-1.34,2.23-2.7,3.33-4.07.7-.86,1.38-1.72,2.06-2.6,1.08-1.37,2.16-2.75,3.22-4.15.76-.96,1.48-1.96,2.22-2.93,1-1.3,1.97-2.62,2.92-3.92.61-.84,1.22-1.65,1.81-2.48,1.91-2.65,3.79-5.33,5.61-8.02.34-.48.66-.96.98-1.42.28-.43.56-.84.83-1.25,4.96-7.39,9.69-14.99,14.12-22.74,10.79-18.84,19.99-38.63,27.47-59.15l-100.57,95.11Z"/>
  <path class="cls-3" d="M687.45,263.92l.05.15c2.19,6.84,4.21,13.69,5.96,20.54.13.48.27.98.41,1.48,12.28,47.76,14.92,96.01,9.04,142.49-1.95,15.53-4.86,30.86-8.69,45.91-.72,2.8-1.46,5.59-2.25,8.38-5.33,19.2-12.17,37.93-20.4,56.02-3.05,6.71-6.3,13.33-9.74,19.85-20.98,39.78-48.95,75.94-82.89,106.36-6.27,5.62-12.72,11.05-19.39,16.28-6.79,5.33-13.79,10.43-20.99,15.3-14.22,9.65-29.23,18.39-44.94,26.12-16.3,8.09-33.4,15.07-51.18,20.86-.47.16-.94.31-1.41.47-17.76,5.69-35.62,10.03-53.44,13.06-.27-.19-.53-.38-.72-.6,2.09-1.06,4.17-2.14,6.23-3.22.04-.01.1-.06.14-.07.13-.07.24-.13.37-.2,1.1-.58,2.19-1.17,3.28-1.77.05-.02.1-.06.15-.07,1-.55,2.02-1.1,3.02-1.67,1.02-.57,2.05-1.14,3.05-1.7.88-.5,1.74-1,2.59-1.51.5-.27.99-.56,1.45-.84.97-.55,1.91-1.11,2.85-1.68.49-.28.97-.58,1.45-.87.41-.25.82-.49,1.22-.73.74-.44,1.47-.89,2.21-1.35.99-.61,1.98-1.23,2.98-1.86,1.14-.72,2.29-1.44,3.43-2.19,1.46-.93,2.89-1.86,4.32-2.81.95-.64,1.9-1.27,2.84-1.9.26-.18.52-.36.78-.54.14-.09.27-.19.41-.28.59-.4,1.2-.81,1.78-1.22.21-.13.42-.28.61-.43,1.39-.95,2.75-1.93,4.11-2.9,1-.7,1.98-1.41,2.96-2.13,1.39-1,2.77-2.02,4.12-3.04.97-.71,1.91-1.43,2.86-2.15,2.54-1.95,5.05-3.91,7.51-5.91,1.14-.9,2.26-1.83,3.37-2.74,1.11-.93,2.23-1.85,3.35-2.79,10.93-9.21,21.29-19.01,31.04-29.33.89-.95,1.78-1.9,2.67-2.85,1.05-1.13,2.09-2.26,3.13-3.42.92-1.01,1.81-2.03,2.71-3.04.72-.83,1.44-1.63,2.16-2.45,1.13-1.29,2.24-2.6,3.35-3.92.84-1,1.7-2.01,2.54-3.04.62-.73,1.24-1.48,1.83-2.22.58-.71,1.15-1.41,1.71-2.11.73-.9,1.45-1.81,2.17-2.74.79-.97,1.54-1.95,2.31-2.94.71-.91,1.42-1.83,2.13-2.77.59-.78,1.19-1.56,1.76-2.36.61-.81,1.22-1.62,1.82-2.46.31-.42.62-.85.93-1.29.66-.87,1.3-1.77,1.94-2.66.04-.05.07-.1.1-.15.69-.96,1.35-1.92,2.04-2.89.97-1.37,1.92-2.74,2.85-4.12.76-1.09,1.5-2.19,2.23-3.29.12-.19.24-.37.37-.55.52-.79,1.04-1.59,1.55-2.4,1.09-1.64,2.17-3.31,3.22-4.98.65-1.03,1.3-2.07,1.94-3.12.59-.93,1.15-1.87,1.73-2.83.91-1.49,1.81-2.99,2.7-4.51.56-.95,1.11-1.9,1.65-2.87.88-1.51,1.74-3.04,2.59-4.57.62-1.06,1.18-2.14,1.77-3.22.79-1.43,1.56-2.87,2.32-4.3.49-.91.97-1.82,1.43-2.72,1.51-2.9,2.97-5.82,4.38-8.74.26-.53.52-1.05.77-1.55.22-.47.43-.91.64-1.36,3.83-8.04,7.4-16.24,10.67-24.55,8.17-20.82,14.56-42.41,19-64.48,1.24-6.16,2.33-12.37,3.25-18.6,2.19-14.5,3.52-29.17,4-43.96,1.19-35.6-2.65-71.85-11.99-107.86-1.84-7.15-3.91-14.3-6.19-21.4-.56-1.78-1.14-3.51-1.74-5.25-.87-15.47,4.46-30.48,14.36-41.9.84-.98,1.74-1.93,2.66-2.85.41-.42.82-.81,1.23-1.21,6.28-5.99,13.97-10.69,22.76-13.52,3.26-1.05,6.54-1.8,9.82-2.26,2.11-.31,4.2-.48,6.31-.55,22.6-.79,44.09,11.59,54.58,32.02Z"/>
  <circle class="cls-2" cx="593.38" cy="121.5" r="78.7"/>
</svg>