<?xml version="1.0" encoding="UTF-8"?>
<svg id="Calque_1" data-name="Calque 1" xmlns="http://www.w3.org/2000/svg" viewBox="0 0 4420.92 872.64">
  <defs>
    <style>
      .cls-1 {
        fill: #f3931a;
      }

      .cls-1, .cls-2 {
        stroke-width: 0px;
      }

      .cls-2 {
        fill: #2b193f;
      }
    </style>
  </defs>
  <g>
    <path class="cls-2" d="M1188.9,116.14c-178.56,0-323.4,144.37-324.15,322.75v2.8c.75,178.39,145.59,322.75,324.15,322.75s324.15-145.12,324.15-324.15-145.13-324.15-324.15-324.15ZM1188.9,548.16c-59.58,0-107.87-48.29-107.87-107.87s48.29-107.87,107.87-107.87,107.87,48.3,107.87,107.87-48.3,107.87-107.87,107.87Z"/>
    <path class="cls-2" d="M864.74,440.29c0-.47,0-.93.01-1.4v2.8c-.01-.47-.01-.93-.01-1.4Z"/>
  </g>
  <polygon class="cls-2" points="2229.11 658.22 2120.11 767.22 2004.51 651.62 1904.78 551.89 1690.39 766.28 1581.39 657.28 1795.78 442.89 1696.05 343.16 1581.55 228.66 1690.55 119.66 1805.44 234.55 2013.78 442.89 2113.12 542.23 2229.11 658.22"/>
  <path class="cls-2" d="M2228.71,227.96l-115.94,115.94c-22.78-47.62-61.38-86.23-109-109l115.94-115.94,109,109Z"/>
  <g>
    <polygon class="cls-2" points="713.6 308.43 713.63 308.46 448.82 573.27 448.79 573.24 372.38 649.65 258.08 763.95 149.08 654.95 263.39 540.64 363.47 440.56 472.47 331.56 472.5 331.59 532.01 272.08 149.08 272.08 149.08 117.93 686.1 117.93 687.4 116.63 796.4 225.63 713.6 308.43"/>
    <path class="cls-1" d="M796.4,609.8v154.15s-163.48,0-163.48,0c17.39-49.83,17.21-104.43-.55-154.15h164.03Z"/>
  </g>
  <g>
    <path class="cls-1" d="M2838.65,683.85c-19.15,17.34-40.38,32.41-63.28,44.81-41.73,22.6-88.97,36.31-139.2,38.59-1.34.06-2.68.11-4.02.15-3.63.13-7.27.19-10.93.19-65.6,0-126.65-19.48-177.67-52.98-62.1-40.77-109.35-102.29-131.89-174.71-9.36-30.04-14.45-61.97-14.59-95.06v-2.8c.75-178.38,145.59-322.75,324.15-322.75v216.28c-59.58,0-107.87,48.3-107.87,107.87,0,4.43.27,8.79.79,13.08,6.45,53.41,51.93,94.79,107.08,94.79,34.84,0,65.83-16.52,85.54-42.16,25.63,16.83,48.73,37.19,68.61,60.4,28.28,33.01,50.04,71.78,63.28,114.3Z"/>
    <path class="cls-1" d="M2297.07,442.04v2.8c-.01-.47-.01-.93-.01-1.4s0-.93.01-1.4Z"/>
  </g>
  <g>
    <path class="cls-1" d="M3231.16,116.14c-178.56,0-323.4,144.37-324.15,322.75v2.8c.75,178.39,145.59,322.75,324.15,322.75s324.15-145.12,324.15-324.15-145.13-324.15-324.15-324.15ZM3231.16,548.16c-59.58,0-107.87-48.29-107.87-107.87s48.29-107.87,107.87-107.87,107.87,48.3,107.87,107.87-48.3,107.87-107.87,107.87Z"/>
    <path class="cls-1" d="M2907,440.29c0-.47,0-.93.01-1.4v2.8c-.01-.47-.01-.93-.01-1.4Z"/>
  </g>
  <polygon class="cls-1" points="3624.52 224.53 3624.52 226.25 3623.66 225.39 3624.52 224.53"/>
  <path class="cls-1" d="M4271.84,599.92v164.03h-154.15v-163.48c49.83,17.39,104.43,17.21,154.15-.55Z"/>
  <polygon class="cls-1" points="4270.82 224.69 4154.88 340.63 4055.89 439.62 3946.89 548.62 3778.67 380.4 3778.67 763.95 3624.52 763.95 3624.52 224.53 3732.66 116.39 3847.56 231.29 3946.9 330.63 4045.88 231.64 4161.83 115.69 4270.82 224.69"/>
  <path class="cls-1" d="M3899.02,500.75c-4.94-3.86-9.39-8.31-13.25-13.25l13.25,13.25Z"/>
  <polygon class="cls-1" points="3624.97 224.08 3624.52 224.53 3624.52 224.08 3624.97 224.08"/>
</svg>